# xmcd
#
# Track frame offsets:
#	150
#	13327
#	23864
#	38175
#	54611
#	66019
#	78114
#	90196
#	103696
#	114578
#	125790
#	144297
#	155836
#	168434
#	180839
#	195401
#	207650
#	222486
#	234173
#	245695
#	260181
#
# Disc length: 3647 seconds
#
# Revision: 0
# Processed by: cddbd v1.5.2PL0 Copyright (c) Steve Scherf et al.
# Submitted via: audiograbber 1.83.01
#
DISCID=280e3d15
DTITLE=Rob Gill - Pauper's Wages
DYEAR=1900
DGENRE=Country
TTITLE0=Swanky Guitars
TTITLE1=Can't do Nothin Right
TTITLE2=The likely Bloke
TTITLE3=Trev
TTITLE4=Frost on the Ground
TTITLE5=I'm Busted
TTITLE6=Eyes of Love
TTITLE7=Fire and Pain
TTITLE8=Mate of Mine
TTITLE9=Bush Telegraph
TTITLE10=Heart Break Heaven
TTITLE11=The Salesman
TTITLE12=Multi Colouerd Pills
TTITLE13=With a Dream
TTITLE14=The Swaggie
TTITLE15=Paupers Wages
TTITLE16=Old Country Singer
TTITLE17=The Old Bridge
TTITLE18=Calling It a Day
TTITLE19=Make a House a Home
TTITLE20=The Mirror
EXTD=
EXTT0=
EXTT1=
EXTT2=
EXTT3=
EXTT4=
EXTT5=
EXTT6=
EXTT7=
EXTT8=
EXTT9=
EXTT10=
EXTT11=
EXTT12=
EXTT13=
EXTT14=
EXTT15=
EXTT16=
EXTT17=
EXTT18=
EXTT19=
EXTT20=
PLAYORDER=
